<svg xmlns="http://www.w3.org/2000/svg" xmlns:xlink="http://www.w3.org/1999/xlink" width="512" zoomAndPan="magnify" viewBox="0 0 384 383.999986" height="512" preserveAspectRatio="xMidYMid meet" version="1.0"><defs><g/><clipPath id="id1"><path d="M 19.199219 19.199219 L 364.949219 19.199219 L 364.949219 364.949219 L 19.199219 364.949219 Z M 19.199219 19.199219 " clip-rule="nonzero"/></clipPath></defs><g clip-path="url(#id1)"><path fill="#f5fbff" d="M 192.074219 19.199219 C 96.597656 19.199219 19.199219 96.597656 19.199219 192.074219 C 19.199219 287.550781 96.597656 364.949219 192.074219 364.949219 C 287.550781 364.949219 364.949219 287.550781 364.949219 192.074219 C 364.949219 96.597656 287.550781 19.199219 192.074219 19.199219 " fill-opacity="1" fill-rule="nonzero"/></g><g fill="#000000" fill-opacity="1"><g transform="translate(36.900004, 302.61269)"><g><path d="M 158.328125 -226.265625 C 172.859375 -226.265625 186.425781 -224.445312 199.03125 -220.8125 C 211.632812 -217.1875 222.691406 -212.488281 232.203125 -206.71875 C 241.710938 -200.945312 249.242188 -194.753906 254.796875 -188.140625 L 232.359375 -163.78125 C 222.109375 -172.320312 210.785156 -179.265625 198.390625 -184.609375 C 185.992188 -189.953125 172.640625 -192.625 158.328125 -192.625 C 140.804688 -192.625 125.097656 -189.097656 111.203125 -182.046875 C 97.316406 -174.992188 86.3125 -165.429688 78.1875 -153.359375 C 70.070312 -141.285156 66.015625 -127.554688 66.015625 -112.171875 C 66.015625 -94.867188 70.285156 -80.125 78.828125 -67.9375 C 87.378906 -55.757812 98.65625 -46.46875 112.65625 -40.0625 C 126.65625 -33.65625 141.664062 -30.453125 157.6875 -30.453125 C 172 -30.453125 185.191406 -32.585938 197.265625 -36.859375 C 209.335938 -41.128906 218.953125 -46.945312 226.109375 -54.3125 C 233.265625 -61.6875 236.84375 -70.078125 236.84375 -79.484375 L 157.6875 -79.484375 L 157.6875 -113.140625 L 273.0625 -113.140625 C 273.488281 -110.359375 273.863281 -107.578125 274.1875 -104.796875 C 274.507812 -102.023438 274.671875 -99.25 274.671875 -96.46875 C 274.671875 -84.925781 272.851562 -73.8125 269.21875 -63.125 C 265.582031 -52.445312 260.5625 -43.265625 254.15625 -35.578125 C 244.320312 -23.398438 230.910156 -13.890625 213.921875 -7.046875 C 196.941406 -0.210938 177.445312 3.203125 155.4375 3.203125 C 138.34375 3.203125 122.210938 0.535156 107.046875 -4.796875 C 91.878906 -10.140625 78.523438 -17.832031 66.984375 -27.875 C 55.441406 -37.925781 46.359375 -50.054688 39.734375 -64.265625 C 33.117188 -78.472656 29.8125 -94.441406 29.8125 -112.171875 C 29.8125 -128.410156 33.066406 -143.421875 39.578125 -157.203125 C 46.097656 -170.984375 55.179688 -183.054688 66.828125 -193.421875 C 78.472656 -203.785156 92.09375 -211.847656 107.6875 -217.609375 C 123.28125 -223.378906 140.160156 -226.265625 158.328125 -226.265625 Z M 158.328125 -226.265625 "/></g></g></g></svg>