<svg xmlns="http://www.w3.org/2000/svg" xmlns:xlink="http://www.w3.org/1999/xlink" viewBox="0 0 253.7632 142.3012">
  <defs>
    <style>
      .cls-1 {
        isolation: isolate;
      }

      .cls-2 {
        fill: url(#linear-gradient);
      }

      .cls-3 {
        fill: #1db9d4;
        opacity: 0.5;
        mix-blend-mode: multiply;
      }

      .cls-4 {
        fill: #0065ff;
      }
    </style>
    <linearGradient id="linear-gradient" y1="58.5415" x2="253.7632" y2="58.5415" gradientUnits="userSpaceOnUse">
      <stop offset="0" stop-color="#008da6"/>
      <stop offset="1" stop-color="#b3f5ff"/>
    </linearGradient>
  </defs>
  <title>Cloud</title>
  <g class="cls-1">
    <g id="Layer_2" data-name="Layer 2">
      <g id="Objects">
        <path class="cls-2" d="M253.7632,83.3139a33.4731,33.4731,0,0,0-48.7511-29.8234A58.5321,58.5321,0,0,0,90.404,42.5,38.4131,38.4131,0,0,0,38.4049,78.4216a38.21,38.21,0,0,1-5.0858,19.0869h-.41v.7133A38.3821,38.3821,0,0,1,0,116.8273H141.3271c1.771.1612,3.5616.2558,5.3747.2558s3.6036-.0946,5.3747-.2558H222.477v-.1124A33.4883,33.4883,0,0,0,253.7632,83.3139Z"/>
        <path class="cls-3" d="M171.8453,92.0356a25.2063,25.2063,0,0,0-3.5806.284,41.3324,41.3324,0,0,0-80.9019.3243,25.08,25.08,0,0,0-30.5687,24.1833h84.533c1.7711.1612,3.5616.2558,5.3747.2558s3.6036-.0946,5.3746-.2558h44.8927A25.1286,25.1286,0,0,0,171.8453,92.0356Z"/>
        <path class="cls-4" d="M204.2215,92.0356a25.2063,25.2063,0,0,0-3.5806.284,41.332,41.332,0,0,0-80.9019.3243A25.08,25.08,0,0,0,89.17,116.8273c-.0015.1141-.0086.2267-.0086.3412a25.1328,25.1328,0,0,0,25.1329,25.1328h89.9268a25.1327,25.1327,0,0,0,25.1325-25.1328c0-.5463-.0236-1.0868-.0579-1.6244A25.13,25.13,0,0,0,204.2215,92.0356Z"/>
      </g>
    </g>
  </g>
</svg>
